<mxfile host="app.diagrams.net" agent="Mozilla/5.0 (Windows NT 10.0; Win64; x64) AppleWebKit/537.36 (KHTML, like Gecko) Chrome/132.0.0.0 Safari/537.36 OPR/117.0.0.0" version="26.2.12">
  <diagram name="Page-1" id="l3pudED8dVqby9kw56cS">
    <mxGraphModel dx="736" dy="864" grid="1" gridSize="10" guides="1" tooltips="1" connect="1" arrows="1" fold="1" page="1" pageScale="1" pageWidth="850" pageHeight="1100" math="0" shadow="0">
      <root>
        <mxCell id="0" />
        <mxCell id="1" parent="0" />
        <mxCell id="Gxk-ErRwpPwVW8YjZmax-1" value="GUI" style="shape=folder;fontStyle=1;spacingTop=10;tabWidth=40;tabHeight=14;tabPosition=left;html=1;whiteSpace=wrap;" vertex="1" parent="1">
          <mxGeometry x="180" y="140" width="190" height="130" as="geometry" />
        </mxCell>
        <mxCell id="Gxk-ErRwpPwVW8YjZmax-2" value="BusinessLogic" style="shape=folder;fontStyle=1;spacingTop=10;tabWidth=40;tabHeight=14;tabPosition=left;html=1;whiteSpace=wrap;" vertex="1" parent="1">
          <mxGeometry x="180" y="350" width="190" height="130" as="geometry" />
        </mxCell>
        <mxCell id="Gxk-ErRwpPwVW8YjZmax-3" value="DataAccess" style="shape=folder;fontStyle=1;spacingTop=10;tabWidth=40;tabHeight=14;tabPosition=left;html=1;whiteSpace=wrap;" vertex="1" parent="1">
          <mxGeometry x="180" y="540" width="190" height="130" as="geometry" />
        </mxCell>
        <mxCell id="Gxk-ErRwpPwVW8YjZmax-4" value="DataModel" style="shape=folder;fontStyle=1;spacingTop=10;tabWidth=40;tabHeight=14;tabPosition=left;html=1;whiteSpace=wrap;" vertex="1" parent="1">
          <mxGeometry x="530" y="350" width="190" height="130" as="geometry" />
        </mxCell>
        <mxCell id="Gxk-ErRwpPwVW8YjZmax-5" value="logFile" style="shape=cylinder3;whiteSpace=wrap;html=1;boundedLbl=1;backgroundOutline=1;size=15;" vertex="1" parent="1">
          <mxGeometry x="245" y="770" width="60" height="80" as="geometry" />
        </mxCell>
        <mxCell id="Gxk-ErRwpPwVW8YjZmax-6" value="" style="html=1;verticalAlign=bottom;endArrow=open;dashed=1;endSize=8;curved=0;rounded=0;entryX=0;entryY=0;entryDx=0;entryDy=72;entryPerimeter=0;exitX=0;exitY=0;exitDx=190;exitDy=72;exitPerimeter=0;" edge="1" parent="1" source="Gxk-ErRwpPwVW8YjZmax-2" target="Gxk-ErRwpPwVW8YjZmax-4">
          <mxGeometry relative="1" as="geometry">
            <mxPoint x="450" y="550" as="sourcePoint" />
            <mxPoint x="370" y="550" as="targetPoint" />
          </mxGeometry>
        </mxCell>
        <mxCell id="Gxk-ErRwpPwVW8YjZmax-7" value="" style="html=1;verticalAlign=bottom;endArrow=open;dashed=1;endSize=8;curved=0;rounded=0;entryX=0.5;entryY=1;entryDx=0;entryDy=0;entryPerimeter=0;exitX=0;exitY=0;exitDx=190;exitDy=72;exitPerimeter=0;" edge="1" parent="1" source="Gxk-ErRwpPwVW8YjZmax-3" target="Gxk-ErRwpPwVW8YjZmax-4">
          <mxGeometry relative="1" as="geometry">
            <mxPoint x="380" y="432" as="sourcePoint" />
            <mxPoint x="540" y="432" as="targetPoint" />
          </mxGeometry>
        </mxCell>
        <mxCell id="Gxk-ErRwpPwVW8YjZmax-8" value="" style="html=1;verticalAlign=bottom;endArrow=open;dashed=1;endSize=8;curved=0;rounded=0;entryX=0;entryY=0;entryDx=115;entryDy=14;entryPerimeter=0;exitX=0;exitY=0;exitDx=190;exitDy=72;exitPerimeter=0;" edge="1" parent="1" source="Gxk-ErRwpPwVW8YjZmax-1" target="Gxk-ErRwpPwVW8YjZmax-4">
          <mxGeometry relative="1" as="geometry">
            <mxPoint x="390" y="442" as="sourcePoint" />
            <mxPoint x="550" y="442" as="targetPoint" />
          </mxGeometry>
        </mxCell>
        <mxCell id="Gxk-ErRwpPwVW8YjZmax-9" value="" style="html=1;verticalAlign=bottom;endArrow=open;dashed=1;endSize=8;curved=0;rounded=0;entryX=0.499;entryY=0.106;entryDx=0;entryDy=0;entryPerimeter=0;exitX=0.5;exitY=1;exitDx=0;exitDy=0;exitPerimeter=0;" edge="1" parent="1" source="Gxk-ErRwpPwVW8YjZmax-1" target="Gxk-ErRwpPwVW8YjZmax-2">
          <mxGeometry relative="1" as="geometry">
            <mxPoint x="400" y="452" as="sourcePoint" />
            <mxPoint x="560" y="452" as="targetPoint" />
          </mxGeometry>
        </mxCell>
        <mxCell id="Gxk-ErRwpPwVW8YjZmax-10" value="" style="html=1;verticalAlign=bottom;endArrow=open;dashed=1;endSize=8;curved=0;rounded=0;exitX=0.5;exitY=1;exitDx=0;exitDy=0;exitPerimeter=0;entryX=0.503;entryY=0.109;entryDx=0;entryDy=0;entryPerimeter=0;" edge="1" parent="1" source="Gxk-ErRwpPwVW8YjZmax-2" target="Gxk-ErRwpPwVW8YjZmax-3">
          <mxGeometry relative="1" as="geometry">
            <mxPoint x="410" y="462" as="sourcePoint" />
            <mxPoint x="270" y="530" as="targetPoint" />
          </mxGeometry>
        </mxCell>
        <mxCell id="Gxk-ErRwpPwVW8YjZmax-11" value="" style="html=1;verticalAlign=bottom;endArrow=open;dashed=1;endSize=8;curved=0;rounded=0;entryX=0.5;entryY=0;entryDx=0;entryDy=0;entryPerimeter=0;exitX=0.5;exitY=1;exitDx=0;exitDy=0;exitPerimeter=0;" edge="1" parent="1" source="Gxk-ErRwpPwVW8YjZmax-3" target="Gxk-ErRwpPwVW8YjZmax-5">
          <mxGeometry relative="1" as="geometry">
            <mxPoint x="420" y="472" as="sourcePoint" />
            <mxPoint x="580" y="472" as="targetPoint" />
          </mxGeometry>
        </mxCell>
      </root>
    </mxGraphModel>
  </diagram>
</mxfile>
